{
	"asset":{
		"generator":"Khronos glTF Blender I/O v4.5.47",
		"version":"2.0"
	},
	"scene":0,
	"scenes":[
		{
			"name":"Scene",
			"nodes":[
				13
			]
		}
	],
	"nodes":[
		{
			"name":"RightEye",
			"rotation":[
				0.0951310247182846,
				0.7006782293319702,
				0.09513100236654282,
				0.7006784081459045
			],
			"scale":[
				1.0000001192092896,
				1.000000238418579,
				1.0000001192092896
			],
			"translation":[
				0.7279463410377502,
				0.2961225211620331,
				-0.27689963579177856
			]
		},
		{
			"name":"LeftEye",
			"rotation":[
				0.09513098001480103,
				0.7006782293319702,
				0.09513095021247864,
				0.7006784081459045
			],
			"scale":[
				1.0000001192092896,
				1,
				1
			],
			"translation":[
				-0.7279463410377502,
				0.29612240195274353,
				-0.2768999934196472
			]
		},
		{
			"children":[
				0,
				1
			],
			"name":"Head",
			"rotation":[
				0.10083377361297607,
				-0.6989557147026062,
				0.012501548044383526,
				0.7079104781150818
			],
			"scale":[
				1,
				1,
				1.0000001192092896
			],
			"translation":[
				-0.14818039536476135,
				0.3886701166629791,
				0.051663707941770554
			]
		},
		{
			"children":[
				2
			],
			"name":"Neck",
			"rotation":[
				-0.06274435669183731,
				0.0021288320422172546,
				-0.21324819326400757,
				0.9749789237976074
			],
			"scale":[
				0.9999999403953552,
				0.9999999403953552,
				0.9999999403953552
			],
			"translation":[
				0,
				0.4375644624233246,
				0
			]
		},
		{
			"name":"Hand.L",
			"rotation":[
				0.13669860363006592,
				3.054886552056324e-11,
				1.4572953954683499e-10,
				0.9906126856803894
			],
			"translation":[
				-1.5496839367301618e-09,
				0.2189493179321289,
				-4.842877388000488e-08
			]
		},
		{
			"children":[
				4
			],
			"name":"LowerArm.L",
			"rotation":[
				-0.2654148042201996,
				-4.917958054684313e-11,
				-1.7864763834918307e-10,
				0.9641342759132385
			],
			"scale":[
				1,
				1.0000001192092896,
				1.0000001192092896
			],
			"translation":[
				0,
				0.27360591292381287,
				-2.9802322387695312e-08
			]
		},
		{
			"children":[
				5
			],
			"name":"Shoulder.L",
			"rotation":[
				-0.19038406014442444,
				0,
				0,
				0.9817097187042236
			],
			"scale":[
				1,
				1,
				0.9999999403953552
			],
			"translation":[
				-0.013315856456756592,
				0.24881431460380554,
				-1.0265377759933472
			]
		},
		{
			"name":"Hand.R",
			"rotation":[
				-0.1366986185312271,
				7.157029102700108e-08,
				1.6552423431903662e-08,
				0.9906126856803894
			],
			"translation":[
				1.6928538570937235e-09,
				0.21894943714141846,
				5.564788452261382e-08
			]
		},
		{
			"children":[
				7
			],
			"name":"LowerArm.R",
			"rotation":[
				0.2654147744178772,
				-4.719219148796583e-08,
				-3.99651689519942e-08,
				0.9641343355178833
			],
			"scale":[
				1,
				1.0000001192092896,
				1.0000001192092896
			],
			"translation":[
				2.2732038473805005e-10,
				0.27360594272613525,
				-2.7231793708892837e-08
			]
		},
		{
			"children":[
				8
			],
			"name":"Shoulder.R",
			"rotation":[
				0.19038406014442444,
				-9.767220632284079e-08,
				-3.338819443143848e-09,
				0.9817097187042236
			],
			"scale":[
				1,
				1,
				0.9999999403953552
			],
			"translation":[
				-0.013315836898982525,
				0.24881431460380554,
				1.0368741750717163
			]
		},
		{
			"children":[
				3,
				6,
				9
			],
			"name":"Body",
			"rotation":[
				0,
				-1.1920928955078125e-07,
				0,
				1
			],
			"translation":[
				0,
				0.40788665413856506,
				0
			]
		},
		{
			"children":[
				10
			],
			"name":"Root",
			"rotation":[
				0,
				1.1920928955078125e-07,
				0,
				1
			]
		},
		{
			"mesh":0,
			"name":"Slime",
			"skin":0
		},
		{
			"children":[
				12,
				11
			],
			"name":"Armature"
		}
	],
	"animations":[
		{
			"channels":[
				{
					"sampler":0,
					"target":{
						"node":11,
						"path":"translation"
					}
				},
				{
					"sampler":1,
					"target":{
						"node":11,
						"path":"rotation"
					}
				},
				{
					"sampler":2,
					"target":{
						"node":11,
						"path":"scale"
					}
				},
				{
					"sampler":3,
					"target":{
						"node":10,
						"path":"translation"
					}
				},
				{
					"sampler":4,
					"target":{
						"node":10,
						"path":"rotation"
					}
				},
				{
					"sampler":5,
					"target":{
						"node":10,
						"path":"scale"
					}
				},
				{
					"sampler":6,
					"target":{
						"node":3,
						"path":"translation"
					}
				},
				{
					"sampler":7,
					"target":{
						"node":3,
						"path":"rotation"
					}
				},
				{
					"sampler":8,
					"target":{
						"node":3,
						"path":"scale"
					}
				},
				{
					"sampler":9,
					"target":{
						"node":2,
						"path":"translation"
					}
				},
				{
					"sampler":10,
					"target":{
						"node":2,
						"path":"rotation"
					}
				},
				{
					"sampler":11,
					"target":{
						"node":2,
						"path":"scale"
					}
				},
				{
					"sampler":12,
					"target":{
						"node":0,
						"path":"translation"
					}
				},
				{
					"sampler":13,
					"target":{
						"node":0,
						"path":"rotation"
					}
				},
				{
					"sampler":14,
					"target":{
						"node":0,
						"path":"scale"
					}
				},
				{
					"sampler":15,
					"target":{
						"node":1,
						"path":"translation"
					}
				},
				{
					"sampler":16,
					"target":{
						"node":1,
						"path":"rotation"
					}
				},
				{
					"sampler":17,
					"target":{
						"node":1,
						"path":"scale"
					}
				},
				{
					"sampler":18,
					"target":{
						"node":6,
						"path":"translation"
					}
				},
				{
					"sampler":19,
					"target":{
						"node":6,
						"path":"rotation"
					}
				},
				{
					"sampler":20,
					"target":{
						"node":6,
						"path":"scale"
					}
				},
				{
					"sampler":21,
					"target":{
						"node":5,
						"path":"translation"
					}
				},
				{
					"sampler":22,
					"target":{
						"node":5,
						"path":"rotation"
					}
				},
				{
					"sampler":23,
					"target":{
						"node":5,
						"path":"scale"
					}
				},
				{
					"sampler":24,
					"target":{
						"node":4,
						"path":"translation"
					}
				},
				{
					"sampler":25,
					"target":{
						"node":4,
						"path":"rotation"
					}
				},
				{
					"sampler":26,
					"target":{
						"node":4,
						"path":"scale"
					}
				},
				{
					"sampler":27,
					"target":{
						"node":9,
						"path":"translation"
					}
				},
				{
					"sampler":28,
					"target":{
						"node":9,
						"path":"rotation"
					}
				},
				{
					"sampler":29,
					"target":{
						"node":9,
						"path":"scale"
					}
				},
				{
					"sampler":30,
					"target":{
						"node":8,
						"path":"translation"
					}
				},
				{
					"sampler":31,
					"target":{
						"node":8,
						"path":"rotation"
					}
				},
				{
					"sampler":32,
					"target":{
						"node":8,
						"path":"scale"
					}
				},
				{
					"sampler":33,
					"target":{
						"node":7,
						"path":"translation"
					}
				},
				{
					"sampler":34,
					"target":{
						"node":7,
						"path":"rotation"
					}
				},
				{
					"sampler":35,
					"target":{
						"node":7,
						"path":"scale"
					}
				}
			],
			"name":"Slime_Attack",
			"samplers":[
				{
					"input":11,
					"interpolation":"STEP",
					"output":12
				},
				{
					"input":11,
					"interpolation":"STEP",
					"output":13
				},
				{
					"input":11,
					"interpolation":"STEP",
					"output":14
				},
				{
					"input":15,
					"interpolation":"LINEAR",
					"output":16
				},
				{
					"input":15,
					"interpolation":"LINEAR",
					"output":17
				},
				{
					"input":11,
					"interpolation":"STEP",
					"output":14
				},
				{
					"input":11,
					"interpolation":"STEP",
					"output":18
				},
				{
					"input":11,
					"interpolation":"STEP",
					"output":19
				},
				{
					"input":11,
					"interpolation":"STEP",
					"output":20
				},
				{
					"input":15,
					"interpolation":"LINEAR",
					"output":21
				},
				{
					"input":11,
					"interpolation":"STEP",
					"output":22
				},
				{
					"input":11,
					"interpolation":"STEP",
					"output":23
				},
				{
					"input":11,
					"interpolation":"STEP",
					"output":24
				},
				{
					"input":11,
					"interpolation":"STEP",
					"output":25
				},
				{
					"input":11,
					"interpolation":"STEP",
					"output":26
				},
				{
					"input":11,
					"interpolation":"STEP",
					"output":27
				},
				{
					"input":11,
					"interpolation":"STEP",
					"output":28
				},
				{
					"input":11,
					"interpolation":"STEP",
					"output":29
				},
				{
					"input":11,
					"interpolation":"STEP",
					"output":30
				},
				{
					"input":11,
					"interpolation":"STEP",
					"output":31
				},
				{
					"input":11,
					"interpolation":"STEP",
					"output":32
				},
				{
					"input":11,
					"interpolation":"STEP",
					"output":33
				},
				{
					"input":15,
					"interpolation":"LINEAR",
					"output":34
				},
				{
					"input":11,
					"interpolation":"STEP",
					"output":35
				},
				{
					"input":11,
					"interpolation":"STEP",
					"output":36
				},
				{
					"input":15,
					"interpolation":"LINEAR",
					"output":37
				},
				{
					"input":11,
					"interpolation":"STEP",
					"output":14
				},
				{
					"input":11,
					"interpolation":"STEP",
					"output":38
				},
				{
					"input":11,
					"interpolation":"STEP",
					"output":39
				},
				{
					"input":11,
					"interpolation":"STEP",
					"output":32
				},
				{
					"input":11,
					"interpolation":"STEP",
					"output":40
				},
				{
					"input":15,
					"interpolation":"LINEAR",
					"output":41
				},
				{
					"input":11,
					"interpolation":"STEP",
					"output":26
				},
				{
					"input":11,
					"interpolation":"STEP",
					"output":42
				},
				{
					"input":15,
					"interpolation":"LINEAR",
					"output":43
				},
				{
					"input":11,
					"interpolation":"STEP",
					"output":44
				}
			]
		},
		{
			"channels":[
				{
					"sampler":0,
					"target":{
						"node":11,
						"path":"translation"
					}
				},
				{
					"sampler":1,
					"target":{
						"node":11,
						"path":"rotation"
					}
				},
				{
					"sampler":2,
					"target":{
						"node":11,
						"path":"scale"
					}
				},
				{
					"sampler":3,
					"target":{
						"node":10,
						"path":"translation"
					}
				},
				{
					"sampler":4,
					"target":{
						"node":10,
						"path":"rotation"
					}
				},
				{
					"sampler":5,
					"target":{
						"node":10,
						"path":"scale"
					}
				},
				{
					"sampler":6,
					"target":{
						"node":3,
						"path":"translation"
					}
				},
				{
					"sampler":7,
					"target":{
						"node":3,
						"path":"rotation"
					}
				},
				{
					"sampler":8,
					"target":{
						"node":3,
						"path":"scale"
					}
				},
				{
					"sampler":9,
					"target":{
						"node":2,
						"path":"translation"
					}
				},
				{
					"sampler":10,
					"target":{
						"node":2,
						"path":"rotation"
					}
				},
				{
					"sampler":11,
					"target":{
						"node":2,
						"path":"scale"
					}
				},
				{
					"sampler":12,
					"target":{
						"node":0,
						"path":"translation"
					}
				},
				{
					"sampler":13,
					"target":{
						"node":0,
						"path":"rotation"
					}
				},
				{
					"sampler":14,
					"target":{
						"node":0,
						"path":"scale"
					}
				},
				{
					"sampler":15,
					"target":{
						"node":1,
						"path":"translation"
					}
				},
				{
					"sampler":16,
					"target":{
						"node":1,
						"path":"rotation"
					}
				},
				{
					"sampler":17,
					"target":{
						"node":1,
						"path":"scale"
					}
				},
				{
					"sampler":18,
					"target":{
						"node":6,
						"path":"translation"
					}
				},
				{
					"sampler":19,
					"target":{
						"node":6,
						"path":"rotation"
					}
				},
				{
					"sampler":20,
					"target":{
						"node":6,
						"path":"scale"
					}
				},
				{
					"sampler":21,
					"target":{
						"node":5,
						"path":"translation"
					}
				},
				{
					"sampler":22,
					"target":{
						"node":5,
						"path":"rotation"
					}
				},
				{
					"sampler":23,
					"target":{
						"node":5,
						"path":"scale"
					}
				},
				{
					"sampler":24,
					"target":{
						"node":4,
						"path":"translation"
					}
				},
				{
					"sampler":25,
					"target":{
						"node":4,
						"path":"rotation"
					}
				},
				{
					"sampler":26,
					"target":{
						"node":4,
						"path":"scale"
					}
				},
				{
					"sampler":27,
					"target":{
						"node":9,
						"path":"translation"
					}
				},
				{
					"sampler":28,
					"target":{
						"node":9,
						"path":"rotation"
					}
				},
				{
					"sampler":29,
					"target":{
						"node":9,
						"path":"scale"
					}
				},
				{
					"sampler":30,
					"target":{
						"node":8,
						"path":"translation"
					}
				},
				{
					"sampler":31,
					"target":{
						"node":8,
						"path":"rotation"
					}
				},
				{
					"sampler":32,
					"target":{
						"node":8,
						"path":"scale"
					}
				},
				{
					"sampler":33,
					"target":{
						"node":7,
						"path":"translation"
					}
				},
				{
					"sampler":34,
					"target":{
						"node":7,
						"path":"rotation"
					}
				},
				{
					"sampler":35,
					"target":{
						"node":7,
						"path":"scale"
					}
				}
			],
			"name":"Slime_Death",
			"samplers":[
				{
					"input":45,
					"interpolation":"STEP",
					"output":12
				},
				{
					"input":45,
					"interpolation":"STEP",
					"output":13
				},
				{
					"input":45,
					"interpolation":"STEP",
					"output":14
				},
				{
					"input":46,
					"interpolation":"LINEAR",
					"output":47
				},
				{
					"input":45,
					"interpolation":"STEP",
					"output":48
				},
				{
					"input":46,
					"interpolation":"LINEAR",
					"output":49
				},
				{
					"input":45,
					"interpolation":"LINEAR",
					"output":50
				},
				{
					"input":45,
					"interpolation":"LINEAR",
					"output":51
				},
				{
					"input":45,
					"interpolation":"STEP",
					"output":52
				},
				{
					"input":45,
					"interpolation":"LINEAR",
					"output":53
				},
				{
					"input":45,
					"interpolation":"LINEAR",
					"output":54
				},
				{
					"input":45,
					"interpolation":"STEP",
					"output":55
				},
				{
					"input":45,
					"interpolation":"LINEAR",
					"output":56
				},
				{
					"input":45,
					"interpolation":"LINEAR",
					"output":25
				},
				{
					"input":45,
					"interpolation":"STEP",
					"output":26
				},
				{
					"input":45,
					"interpolation":"LINEAR",
					"output":57
				},
				{
					"input":45,
					"interpolation":"LINEAR",
					"output":58
				},
				{
					"input":45,
					"interpolation":"STEP",
					"output":59
				},
				{
					"input":45,
					"interpolation":"LINEAR",
					"output":60
				},
				{
					"input":45,
					"interpolation":"LINEAR",
					"output":31
				},
				{
					"input":45,
					"interpolation":"STEP",
					"output":61
				},
				{
					"input":45,
					"interpolation":"STEP",
					"output":62
				},
				{
					"input":45,
					"interpolation":"LINEAR",
					"output":63
				},
				{
					"input":45,
					"interpolation":"STEP",
					"output":64
				},
				{
					"input":45,
					"interpolation":"STEP",
					"output":65
				},
				{
					"input":46,
					"interpolation":"LINEAR",
					"output":66
				},
				{
					"input":45,
					"interpolation":"STEP",
					"output":67
				},
				{
					"input":45,
					"interpolation":"LINEAR",
					"output":68
				},
				{
					"input":45,
					"interpolation":"LINEAR",
					"output":69
				},
				{
					"input":45,
					"interpolation":"STEP",
					"output":61
				},
				{
					"input":45,
					"interpolation":"STEP",
					"output":70
				},
				{
					"input":45,
					"interpolation":"LINEAR",
					"output":71
				},
				{
					"input":45,
					"interpolation":"STEP",
					"output":26
				},
				{
					"input":45,
					"interpolation":"STEP",
					"output":72
				},
				{
					"input":46,
					"interpolation":"LINEAR",
					"output":73
				},
				{
					"input":45,
					"interpolation":"STEP",
					"output":74
				}
			]
		},
		{
			"channels":[
				{
					"sampler":0,
					"target":{
						"node":11,
						"path":"translation"
					}
				},
				{
					"sampler":1,
					"target":{
						"node":11,
						"path":"rotation"
					}
				},
				{
					"sampler":2,
					"target":{
						"node":11,
						"path":"scale"
					}
				},
				{
					"sampler":3,
					"target":{
						"node":10,
						"path":"translation"
					}
				},
				{
					"sampler":4,
					"target":{
						"node":10,
						"path":"rotation"
					}
				},
				{
					"sampler":5,
					"target":{
						"node":10,
						"path":"scale"
					}
				},
				{
					"sampler":6,
					"target":{
						"node":3,
						"path":"translation"
					}
				},
				{
					"sampler":7,
					"target":{
						"node":3,
						"path":"rotation"
					}
				},
				{
					"sampler":8,
					"target":{
						"node":3,
						"path":"scale"
					}
				},
				{
					"sampler":9,
					"target":{
						"node":2,
						"path":"translation"
					}
				},
				{
					"sampler":10,
					"target":{
						"node":2,
						"path":"rotation"
					}
				},
				{
					"sampler":11,
					"target":{
						"node":2,
						"path":"scale"
					}
				},
				{
					"sampler":12,
					"target":{
						"node":0,
						"path":"translation"
					}
				},
				{
					"sampler":13,
					"target":{
						"node":0,
						"path":"rotation"
					}
				},
				{
					"sampler":14,
					"target":{
						"node":0,
						"path":"scale"
					}
				},
				{
					"sampler":15,
					"target":{
						"node":1,
						"path":"translation"
					}
				},
				{
					"sampler":16,
					"target":{
						"node":1,
						"path":"rotation"
					}
				},
				{
					"sampler":17,
					"target":{
						"node":1,
						"path":"scale"
					}
				},
				{
					"sampler":18,
					"target":{
						"node":6,
						"path":"translation"
					}
				},
				{
					"sampler":19,
					"target":{
						"node":6,
						"path":"rotation"
					}
				},
				{
					"sampler":20,
					"target":{
						"node":6,
						"path":"scale"
					}
				},
				{
					"sampler":21,
					"target":{
						"node":5,
						"path":"translation"
					}
				},
				{
					"sampler":22,
					"target":{
						"node":5,
						"path":"rotation"
					}
				},
				{
					"sampler":23,
					"target":{
						"node":5,
						"path":"scale"
					}
				},
				{
					"sampler":24,
					"target":{
						"node":4,
						"path":"translation"
					}
				},
				{
					"sampler":25,
					"target":{
						"node":4,
						"path":"rotation"
					}
				},
				{
					"sampler":26,
					"target":{
						"node":4,
						"path":"scale"
					}
				},
				{
					"sampler":27,
					"target":{
						"node":9,
						"path":"translation"
					}
				},
				{
					"sampler":28,
					"target":{
						"node":9,
						"path":"rotation"
					}
				},
				{
					"sampler":29,
					"target":{
						"node":9,
						"path":"scale"
					}
				},
				{
					"sampler":30,
					"target":{
						"node":8,
						"path":"translation"
					}
				},
				{
					"sampler":31,
					"target":{
						"node":8,
						"path":"rotation"
					}
				},
				{
					"sampler":32,
					"target":{
						"node":8,
						"path":"scale"
					}
				},
				{
					"sampler":33,
					"target":{
						"node":7,
						"path":"translation"
					}
				},
				{
					"sampler":34,
					"target":{
						"node":7,
						"path":"rotation"
					}
				},
				{
					"sampler":35,
					"target":{
						"node":7,
						"path":"scale"
					}
				}
			],
			"name":"Slime_Idle",
			"samplers":[
				{
					"input":75,
					"interpolation":"STEP",
					"output":12
				},
				{
					"input":75,
					"interpolation":"STEP",
					"output":13
				},
				{
					"input":75,
					"interpolation":"STEP",
					"output":14
				},
				{
					"input":76,
					"interpolation":"LINEAR",
					"output":77
				},
				{
					"input":75,
					"interpolation":"STEP",
					"output":48
				},
				{
					"input":75,
					"interpolation":"STEP",
					"output":14
				},
				{
					"input":75,
					"interpolation":"STEP",
					"output":18
				},
				{
					"input":75,
					"interpolation":"STEP",
					"output":19
				},
				{
					"input":75,
					"interpolation":"STEP",
					"output":20
				},
				{
					"input":75,
					"interpolation":"STEP",
					"output":78
				},
				{
					"input":75,
					"interpolation":"STEP",
					"output":22
				},
				{
					"input":75,
					"interpolation":"STEP",
					"output":23
				},
				{
					"input":75,
					"interpolation":"STEP",
					"output":24
				},
				{
					"input":75,
					"interpolation":"STEP",
					"output":25
				},
				{
					"input":75,
					"interpolation":"STEP",
					"output":26
				},
				{
					"input":75,
					"interpolation":"STEP",
					"output":27
				},
				{
					"input":75,
					"interpolation":"STEP",
					"output":28
				},
				{
					"input":75,
					"interpolation":"STEP",
					"output":29
				},
				{
					"input":75,
					"interpolation":"STEP",
					"output":30
				},
				{
					"input":75,
					"interpolation":"STEP",
					"output":31
				},
				{
					"input":75,
					"interpolation":"STEP",
					"output":32
				},
				{
					"input":75,
					"interpolation":"STEP",
					"output":33
				},
				{
					"input":76,
					"interpolation":"LINEAR",
					"output":79
				},
				{
					"input":75,
					"interpolation":"STEP",
					"output":35
				},
				{
					"input":75,
					"interpolation":"STEP",
					"output":36
				},
				{
					"input":76,
					"interpolation":"LINEAR",
					"output":80
				},
				{
					"input":75,
					"interpolation":"STEP",
					"output":14
				},
				{
					"input":75,
					"interpolation":"STEP",
					"output":38
				},
				{
					"input":75,
					"interpolation":"STEP",
					"output":39
				},
				{
					"input":75,
					"interpolation":"STEP",
					"output":32
				},
				{
					"input":75,
					"interpolation":"STEP",
					"output":40
				},
				{
					"input":76,
					"interpolation":"LINEAR",
					"output":81
				},
				{
					"input":75,
					"interpolation":"STEP",
					"output":26
				},
				{
					"input":75,
					"interpolation":"STEP",
					"output":42
				},
				{
					"input":76,
					"interpolation":"LINEAR",
					"output":82
				},
				{
					"input":75,
					"interpolation":"STEP",
					"output":44
				}
			]
		},
		{
			"channels":[
				{
					"sampler":0,
					"target":{
						"node":11,
						"path":"translation"
					}
				},
				{
					"sampler":1,
					"target":{
						"node":11,
						"path":"rotation"
					}
				},
				{
					"sampler":2,
					"target":{
						"node":11,
						"path":"scale"
					}
				},
				{
					"sampler":3,
					"target":{
						"node":10,
						"path":"translation"
					}
				},
				{
					"sampler":4,
					"target":{
						"node":10,
						"path":"rotation"
					}
				},
				{
					"sampler":5,
					"target":{
						"node":10,
						"path":"scale"
					}
				},
				{
					"sampler":6,
					"target":{
						"node":3,
						"path":"translation"
					}
				},
				{
					"sampler":7,
					"target":{
						"node":3,
						"path":"rotation"
					}
				},
				{
					"sampler":8,
					"target":{
						"node":3,
						"path":"scale"
					}
				},
				{
					"sampler":9,
					"target":{
						"node":2,
						"path":"translation"
					}
				},
				{
					"sampler":10,
					"target":{
						"node":2,
						"path":"rotation"
					}
				},
				{
					"sampler":11,
					"target":{
						"node":2,
						"path":"scale"
					}
				},
				{
					"sampler":12,
					"target":{
						"node":0,
						"path":"translation"
					}
				},
				{
					"sampler":13,
					"target":{
						"node":0,
						"path":"rotation"
					}
				},
				{
					"sampler":14,
					"target":{
						"node":0,
						"path":"scale"
					}
				},
				{
					"sampler":15,
					"target":{
						"node":1,
						"path":"translation"
					}
				},
				{
					"sampler":16,
					"target":{
						"node":1,
						"path":"rotation"
					}
				},
				{
					"sampler":17,
					"target":{
						"node":1,
						"path":"scale"
					}
				},
				{
					"sampler":18,
					"target":{
						"node":6,
						"path":"translation"
					}
				},
				{
					"sampler":19,
					"target":{
						"node":6,
						"path":"rotation"
					}
				},
				{
					"sampler":20,
					"target":{
						"node":6,
						"path":"scale"
					}
				},
				{
					"sampler":21,
					"target":{
						"node":5,
						"path":"translation"
					}
				},
				{
					"sampler":22,
					"target":{
						"node":5,
						"path":"rotation"
					}
				},
				{
					"sampler":23,
					"target":{
						"node":5,
						"path":"scale"
					}
				},
				{
					"sampler":24,
					"target":{
						"node":4,
						"path":"translation"
					}
				},
				{
					"sampler":25,
					"target":{
						"node":4,
						"path":"rotation"
					}
				},
				{
					"sampler":26,
					"target":{
						"node":4,
						"path":"scale"
					}
				},
				{
					"sampler":27,
					"target":{
						"node":9,
						"path":"translation"
					}
				},
				{
					"sampler":28,
					"target":{
						"node":9,
						"path":"rotation"
					}
				},
				{
					"sampler":29,
					"target":{
						"node":9,
						"path":"scale"
					}
				},
				{
					"sampler":30,
					"target":{
						"node":8,
						"path":"translation"
					}
				},
				{
					"sampler":31,
					"target":{
						"node":8,
						"path":"rotation"
					}
				},
				{
					"sampler":32,
					"target":{
						"node":8,
						"path":"scale"
					}
				},
				{
					"sampler":33,
					"target":{
						"node":7,
						"path":"translation"
					}
				},
				{
					"sampler":34,
					"target":{
						"node":7,
						"path":"rotation"
					}
				},
				{
					"sampler":35,
					"target":{
						"node":7,
						"path":"scale"
					}
				}
			],
			"name":"Slime_Walk",
			"samplers":[
				{
					"input":83,
					"interpolation":"STEP",
					"output":12
				},
				{
					"input":83,
					"interpolation":"STEP",
					"output":13
				},
				{
					"input":83,
					"interpolation":"STEP",
					"output":14
				},
				{
					"input":84,
					"interpolation":"LINEAR",
					"output":85
				},
				{
					"input":83,
					"interpolation":"STEP",
					"output":48
				},
				{
					"input":83,
					"interpolation":"STEP",
					"output":14
				},
				{
					"input":84,
					"interpolation":"LINEAR",
					"output":86
				},
				{
					"input":84,
					"interpolation":"LINEAR",
					"output":87
				},
				{
					"input":83,
					"interpolation":"STEP",
					"output":20
				},
				{
					"input":83,
					"interpolation":"STEP",
					"output":88
				},
				{
					"input":84,
					"interpolation":"LINEAR",
					"output":89
				},
				{
					"input":83,
					"interpolation":"STEP",
					"output":90
				},
				{
					"input":83,
					"interpolation":"STEP",
					"output":91
				},
				{
					"input":83,
					"interpolation":"STEP",
					"output":25
				},
				{
					"input":83,
					"interpolation":"STEP",
					"output":92
				},
				{
					"input":83,
					"interpolation":"STEP",
					"output":93
				},
				{
					"input":83,
					"interpolation":"STEP",
					"output":94
				},
				{
					"input":83,
					"interpolation":"STEP",
					"output":95
				},
				{
					"input":83,
					"interpolation":"STEP",
					"output":96
				},
				{
					"input":83,
					"interpolation":"STEP",
					"output":31
				},
				{
					"input":83,
					"interpolation":"STEP",
					"output":32
				},
				{
					"input":83,
					"interpolation":"STEP",
					"output":97
				},
				{
					"input":84,
					"interpolation":"LINEAR",
					"output":98
				},
				{
					"input":83,
					"interpolation":"STEP",
					"output":35
				},
				{
					"input":83,
					"interpolation":"STEP",
					"output":99
				},
				{
					"input":84,
					"interpolation":"LINEAR",
					"output":100
				},
				{
					"input":83,
					"interpolation":"STEP",
					"output":29
				},
				{
					"input":83,
					"interpolation":"STEP",
					"output":101
				},
				{
					"input":83,
					"interpolation":"STEP",
					"output":39
				},
				{
					"input":83,
					"interpolation":"STEP",
					"output":32
				},
				{
					"input":83,
					"interpolation":"STEP",
					"output":102
				},
				{
					"input":84,
					"interpolation":"LINEAR",
					"output":103
				},
				{
					"input":83,
					"interpolation":"STEP",
					"output":26
				},
				{
					"input":83,
					"interpolation":"STEP",
					"output":104
				},
				{
					"input":84,
					"interpolation":"LINEAR",
					"output":105
				},
				{
					"input":83,
					"interpolation":"STEP",
					"output":14
				}
			]
		}
	],
	"materials":[
		{
			"doubleSided":true,
			"name":"Body",
			"pbrMetallicRoughness":{
				"baseColorFactor":[
					0.26635563373565674,
					0.799102783203125,
					0.14126330614089966,
					1
				],
				"metallicFactor":0,
				"roughnessFactor":0.5
			}
		},
		{
			"doubleSided":true,
			"name":"Eyes",
			"pbrMetallicRoughness":{
				"baseColorFactor":[
					0.015994809567928314,
					0.015994809567928314,
					0.015994809567928314,
					1
				],
				"metallicFactor":0,
				"roughnessFactor":0.5
			}
		}
	],
	"meshes":[
		{
			"name":"Cube",
			"primitives":[
				{
					"attributes":{
						"POSITION":0,
						"NORMAL":1,
						"JOINTS_0":2,
						"WEIGHTS_0":3
					},
					"indices":4,
					"material":0
				},
				{
					"attributes":{
						"POSITION":5,
						"NORMAL":6,
						"JOINTS_0":7,
						"WEIGHTS_0":8
					},
					"indices":9,
					"material":1
				}
			]
		}
	],
	"skins":[
		{
			"inverseBindMatrices":10,
			"joints":[
				11,
				10,
				3,
				2,
				0,
				1,
				6,
				5,
				4,
				9,
				8,
				7
			],
			"name":"Armature"
		}
	],
	"accessors":[
		{
			"bufferView":0,
			"componentType":5126,
			"count":992,
			"max":[
				1.2683874368667603,
				1.9337544441223145,
				1.5308773517608643
			],
			"min":[
				-1.2683874368667603,
				-0.014278572052717209,
				-1.5308773517608643
			],
			"type":"VEC3"
		},
		{
			"bufferView":1,
			"componentType":5126,
			"count":992,
			"type":"VEC3"
		},
		{
			"bufferView":2,
			"componentType":5121,
			"count":992,
			"type":"VEC4"
		},
		{
			"bufferView":3,
			"componentType":5126,
			"count":992,
			"type":"VEC4"
		},
		{
			"bufferView":4,
			"componentType":5123,
			"count":1440,
			"type":"SCALAR"
		},
		{
			"bufferView":5,
			"componentType":5126,
			"count":1920,
			"max":[
				0.6767857670783997,
				1.7817133665084839,
				1.0346314907073975
			],
			"min":[
				0.07169348001480103,
				1.1687203645706177,
				-1.0346317291259766
			],
			"type":"VEC3"
		},
		{
			"bufferView":6,
			"componentType":5126,
			"count":1920,
			"type":"VEC3"
		},
		{
			"bufferView":7,
			"componentType":5121,
			"count":1920,
			"type":"VEC4"
		},
		{
			"bufferView":8,
			"componentType":5126,
			"count":1920,
			"type":"VEC4"
		},
		{
			"bufferView":9,
			"componentType":5123,
			"count":2880,
			"type":"SCALAR"
		},
		{
			"bufferView":10,
			"componentType":5126,
			"count":12,
			"type":"MAT4"
		},
		{
			"bufferView":11,
			"componentType":5126,
			"count":2,
			"max":[
				0.625
			],
			"min":[
				0
			],
			"type":"SCALAR"
		},
		{
			"bufferView":12,
			"componentType":5126,
			"count":2,
			"type":"VEC3"
		},
		{
			"bufferView":13,
			"componentType":5126,
			"count":2,
			"type":"VEC4"
		},
		{
			"bufferView":14,
			"componentType":5126,
			"count":2,
			"type":"VEC3"
		},
		{
			"bufferView":15,
			"componentType":5126,
			"count":16,
			"max":[
				0.625
			],
			"min":[
				0
			],
			"type":"SCALAR"
		},
		{
			"bufferView":16,
			"componentType":5126,
			"count":16,
			"type":"VEC3"
		},
		{
			"bufferView":17,
			"componentType":5126,
			"count":16,
			"type":"VEC4"
		},
		{
			"bufferView":18,
			"componentType":5126,
			"count":2,
			"type":"VEC3"
		},
		{
			"bufferView":19,
			"componentType":5126,
			"count":2,
			"type":"VEC4"
		},
		{
			"bufferView":20,
			"componentType":5126,
			"count":2,
			"type":"VEC3"
		},
		{
			"bufferView":21,
			"componentType":5126,
			"count":16,
			"type":"VEC3"
		},
		{
			"bufferView":22,
			"componentType":5126,
			"count":2,
			"type":"VEC4"
		},
		{
			"bufferView":23,
			"componentType":5126,
			"count":2,
			"type":"VEC3"
		},
		{
			"bufferView":24,
			"componentType":5126,
			"count":2,
			"type":"VEC3"
		},
		{
			"bufferView":25,
			"componentType":5126,
			"count":2,
			"type":"VEC4"
		},
		{
			"bufferView":26,
			"componentType":5126,
			"count":2,
			"type":"VEC3"
		},
		{
			"bufferView":27,
			"componentType":5126,
			"count":2,
			"type":"VEC3"
		},
		{
			"bufferView":28,
			"componentType":5126,
			"count":2,
			"type":"VEC4"
		},
		{
			"bufferView":29,
			"componentType":5126,
			"count":2,
			"type":"VEC3"
		},
		{
			"bufferView":30,
			"componentType":5126,
			"count":2,
			"type":"VEC3"
		},
		{
			"bufferView":31,
			"componentType":5126,
			"count":2,
			"type":"VEC4"
		},
		{
			"bufferView":32,
			"componentType":5126,
			"count":2,
			"type":"VEC3"
		},
		{
			"bufferView":33,
			"componentType":5126,
			"count":2,
			"type":"VEC3"
		},
		{
			"bufferView":34,
			"componentType":5126,
			"count":16,
			"type":"VEC4"
		},
		{
			"bufferView":35,
			"componentType":5126,
			"count":2,
			"type":"VEC3"
		},
		{
			"bufferView":36,
			"componentType":5126,
			"count":2,
			"type":"VEC3"
		},
		{
			"bufferView":37,
			"componentType":5126,
			"count":16,
			"type":"VEC4"
		},
		{
			"bufferView":38,
			"componentType":5126,
			"count":2,
			"type":"VEC3"
		},
		{
			"bufferView":39,
			"componentType":5126,
			"count":2,
			"type":"VEC4"
		},
		{
			"bufferView":40,
			"componentType":5126,
			"count":2,
			"type":"VEC3"
		},
		{
			"bufferView":41,
			"componentType":5126,
			"count":16,
			"type":"VEC4"
		},
		{
			"bufferView":42,
			"componentType":5126,
			"count":2,
			"type":"VEC3"
		},
		{
			"bufferView":43,
			"componentType":5126,
			"count":16,
			"type":"VEC4"
		},
		{
			"bufferView":44,
			"componentType":5126,
			"count":2,
			"type":"VEC3"
		},
		{
			"bufferView":45,
			"componentType":5126,
			"count":2,
			"max":[
				0.4166666666666667
			],
			"min":[
				0
			],
			"type":"SCALAR"
		},
		{
			"bufferView":46,
			"componentType":5126,
			"count":11,
			"max":[
				0.4166666666666667
			],
			"min":[
				0
			],
			"type":"SCALAR"
		},
		{
			"bufferView":47,
			"componentType":5126,
			"count":11,
			"type":"VEC3"
		},
		{
			"bufferView":48,
			"componentType":5126,
			"count":2,
			"type":"VEC4"
		},
		{
			"bufferView":49,
			"componentType":5126,
			"count":11,
			"type":"VEC3"
		},
		{
			"bufferView":50,
			"componentType":5126,
			"count":2,
			"type":"VEC3"
		},
		{
			"bufferView":51,
			"componentType":5126,
			"count":2,
			"type":"VEC4"
		},
		{
			"bufferView":52,
			"componentType":5126,
			"count":2,
			"type":"VEC3"
		},
		{
			"bufferView":53,
			"componentType":5126,
			"count":2,
			"type":"VEC3"
		},
		{
			"bufferView":54,
			"componentType":5126,
			"count":2,
			"type":"VEC4"
		},
		{
			"bufferView":55,
			"componentType":5126,
			"count":2,
			"type":"VEC3"
		},
		{
			"bufferView":56,
			"componentType":5126,
			"count":2,
			"type":"VEC3"
		},
		{
			"bufferView":57,
			"componentType":5126,
			"count":2,
			"type":"VEC3"
		},
		{
			"bufferView":58,
			"componentType":5126,
			"count":2,
			"type":"VEC4"
		},
		{
			"bufferView":59,
			"componentType":5126,
			"count":2,
			"type":"VEC3"
		},
		{
			"bufferView":60,
			"componentType":5126,
			"count":2,
			"type":"VEC3"
		},
		{
			"bufferView":61,
			"componentType":5126,
			"count":2,
			"type":"VEC3"
		},
		{
			"bufferView":62,
			"componentType":5126,
			"count":2,
			"type":"VEC3"
		},
		{
			"bufferView":63,
			"componentType":5126,
			"count":2,
			"type":"VEC4"
		},
		{
			"bufferView":64,
			"componentType":5126,
			"count":2,
			"type":"VEC3"
		},
		{
			"bufferView":65,
			"componentType":5126,
			"count":2,
			"type":"VEC3"
		},
		{
			"bufferView":66,
			"componentType":5126,
			"count":11,
			"type":"VEC4"
		},
		{
			"bufferView":67,
			"componentType":5126,
			"count":2,
			"type":"VEC3"
		},
		{
			"bufferView":68,
			"componentType":5126,
			"count":2,
			"type":"VEC3"
		},
		{
			"bufferView":69,
			"componentType":5126,
			"count":2,
			"type":"VEC4"
		},
		{
			"bufferView":70,
			"componentType":5126,
			"count":2,
			"type":"VEC3"
		},
		{
			"bufferView":71,
			"componentType":5126,
			"count":2,
			"type":"VEC4"
		},
		{
			"bufferView":72,
			"componentType":5126,
			"count":2,
			"type":"VEC3"
		},
		{
			"bufferView":73,
			"componentType":5126,
			"count":11,
			"type":"VEC4"
		},
		{
			"bufferView":74,
			"componentType":5126,
			"count":2,
			"type":"VEC3"
		},
		{
			"bufferView":75,
			"componentType":5126,
			"count":2,
			"max":[
				2.5
			],
			"min":[
				0
			],
			"type":"SCALAR"
		},
		{
			"bufferView":76,
			"componentType":5126,
			"count":61,
			"max":[
				2.5
			],
			"min":[
				0
			],
			"type":"SCALAR"
		},
		{
			"bufferView":77,
			"componentType":5126,
			"count":61,
			"type":"VEC3"
		},
		{
			"bufferView":78,
			"componentType":5126,
			"count":2,
			"type":"VEC3"
		},
		{
			"bufferView":79,
			"componentType":5126,
			"count":61,
			"type":"VEC4"
		},
		{
			"bufferView":80,
			"componentType":5126,
			"count":61,
			"type":"VEC4"
		},
		{
			"bufferView":81,
			"componentType":5126,
			"count":61,
			"type":"VEC4"
		},
		{
			"bufferView":82,
			"componentType":5126,
			"count":61,
			"type":"VEC4"
		},
		{
			"bufferView":83,
			"componentType":5126,
			"count":2,
			"max":[
				0.8333333333333334
			],
			"min":[
				0
			],
			"type":"SCALAR"
		},
		{
			"bufferView":84,
			"componentType":5126,
			"count":21,
			"max":[
				0.8333333333333334
			],
			"min":[
				0
			],
			"type":"SCALAR"
		},
		{
			"bufferView":85,
			"componentType":5126,
			"count":21,
			"type":"VEC3"
		},
		{
			"bufferView":86,
			"componentType":5126,
			"count":21,
			"type":"VEC3"
		},
		{
			"bufferView":87,
			"componentType":5126,
			"count":21,
			"type":"VEC4"
		},
		{
			"bufferView":88,
			"componentType":5126,
			"count":2,
			"type":"VEC3"
		},
		{
			"bufferView":89,
			"componentType":5126,
			"count":21,
			"type":"VEC4"
		},
		{
			"bufferView":90,
			"componentType":5126,
			"count":2,
			"type":"VEC3"
		},
		{
			"bufferView":91,
			"componentType":5126,
			"count":2,
			"type":"VEC3"
		},
		{
			"bufferView":92,
			"componentType":5126,
			"count":2,
			"type":"VEC3"
		},
		{
			"bufferView":93,
			"componentType":5126,
			"count":2,
			"type":"VEC3"
		},
		{
			"bufferView":94,
			"componentType":5126,
			"count":2,
			"type":"VEC4"
		},
		{
			"bufferView":95,
			"componentType":5126,
			"count":2,
			"type":"VEC3"
		},
		{
			"bufferView":96,
			"componentType":5126,
			"count":2,
			"type":"VEC3"
		},
		{
			"bufferView":97,
			"componentType":5126,
			"count":2,
			"type":"VEC3"
		},
		{
			"bufferView":98,
			"componentType":5126,
			"count":21,
			"type":"VEC4"
		},
		{
			"bufferView":99,
			"componentType":5126,
			"count":2,
			"type":"VEC3"
		},
		{
			"bufferView":100,
			"componentType":5126,
			"count":21,
			"type":"VEC4"
		},
		{
			"bufferView":101,
			"componentType":5126,
			"count":2,
			"type":"VEC3"
		},
		{
			"bufferView":102,
			"componentType":5126,
			"count":2,
			"type":"VEC3"
		},
		{
			"bufferView":103,
			"componentType":5126,
			"count":21,
			"type":"VEC4"
		},
		{
			"bufferView":104,
			"componentType":5126,
			"count":2,
			"type":"VEC3"
		},
		{
			"bufferView":105,
			"componentType":5126,
			"count":21,
			"type":"VEC4"
		}
	],
	"bufferViews":[
		{
			"buffer":0,
			"byteLength":11904,
			"byteOffset":0,
			"target":34962
		},
		{
			"buffer":0,
			"byteLength":11904,
			"byteOffset":11904,
			"target":34962
		},
		{
			"buffer":0,
			"byteLength":3968,
			"byteOffset":23808,
			"target":34962
		},
		{
			"buffer":0,
			"byteLength":15872,
			"byteOffset":27776,
			"target":34962
		},
		{
			"buffer":0,
			"byteLength":2880,
			"byteOffset":43648,
			"target":34963
		},
		{
			"buffer":0,
			"byteLength":23040,
			"byteOffset":46528,
			"target":34962
		},
		{
			"buffer":0,
			"byteLength":23040,
			"byteOffset":69568,
			"target":34962
		},
		{
			"buffer":0,
			"byteLength":7680,
			"byteOffset":92608,
			"target":34962
		},
		{
			"buffer":0,
			"byteLength":30720,
			"byteOffset":100288,
			"target":34962
		},
		{
			"buffer":0,
			"byteLength":5760,
			"byteOffset":131008,
			"target":34963
		},
		{
			"buffer":0,
			"byteLength":768,
			"byteOffset":136768
		},
		{
			"buffer":0,
			"byteLength":8,
			"byteOffset":137536
		},
		{
			"buffer":0,
			"byteLength":24,
			"byteOffset":137544
		},
		{
			"buffer":0,
			"byteLength":32,
			"byteOffset":137568
		},
		{
			"buffer":0,
			"byteLength":24,
			"byteOffset":137600
		},
		{
			"buffer":0,
			"byteLength":64,
			"byteOffset":137624
		},
		{
			"buffer":0,
			"byteLength":192,
			"byteOffset":137688
		},
		{
			"buffer":0,
			"byteLength":256,
			"byteOffset":137880
		},
		{
			"buffer":0,
			"byteLength":24,
			"byteOffset":138136
		},
		{
			"buffer":0,
			"byteLength":32,
			"byteOffset":138160
		},
		{
			"buffer":0,
			"byteLength":24,
			"byteOffset":138192
		},
		{
			"buffer":0,
			"byteLength":192,
			"byteOffset":138216
		},
		{
			"buffer":0,
			"byteLength":32,
			"byteOffset":138408
		},
		{
			"buffer":0,
			"byteLength":24,
			"byteOffset":138440
		},
		{
			"buffer":0,
			"byteLength":24,
			"byteOffset":138464
		},
		{
			"buffer":0,
			"byteLength":32,
			"byteOffset":138488
		},
		{
			"buffer":0,
			"byteLength":24,
			"byteOffset":138520
		},
		{
			"buffer":0,
			"byteLength":24,
			"byteOffset":138544
		},
		{
			"buffer":0,
			"byteLength":32,
			"byteOffset":138568
		},
		{
			"buffer":0,
			"byteLength":24,
			"byteOffset":138600
		},
		{
			"buffer":0,
			"byteLength":24,
			"byteOffset":138624
		},
		{
			"buffer":0,
			"byteLength":32,
			"byteOffset":138648
		},
		{
			"buffer":0,
			"byteLength":24,
			"byteOffset":138680
		},
		{
			"buffer":0,
			"byteLength":24,
			"byteOffset":138704
		},
		{
			"buffer":0,
			"byteLength":256,
			"byteOffset":138728
		},
		{
			"buffer":0,
			"byteLength":24,
			"byteOffset":138984
		},
		{
			"buffer":0,
			"byteLength":24,
			"byteOffset":139008
		},
		{
			"buffer":0,
			"byteLength":256,
			"byteOffset":139032
		},
		{
			"buffer":0,
			"byteLength":24,
			"byteOffset":139288
		},
		{
			"buffer":0,
			"byteLength":32,
			"byteOffset":139312
		},
		{
			"buffer":0,
			"byteLength":24,
			"byteOffset":139344
		},
		{
			"buffer":0,
			"byteLength":256,
			"byteOffset":139368
		},
		{
			"buffer":0,
			"byteLength":24,
			"byteOffset":139624
		},
		{
			"buffer":0,
			"byteLength":256,
			"byteOffset":139648
		},
		{
			"buffer":0,
			"byteLength":24,
			"byteOffset":139904
		},
		{
			"buffer":0,
			"byteLength":8,
			"byteOffset":139928
		},
		{
			"buffer":0,
			"byteLength":44,
			"byteOffset":139936
		},
		{
			"buffer":0,
			"byteLength":132,
			"byteOffset":139980
		},
		{
			"buffer":0,
			"byteLength":32,
			"byteOffset":140112
		},
		{
			"buffer":0,
			"byteLength":132,
			"byteOffset":140144
		},
		{
			"buffer":0,
			"byteLength":24,
			"byteOffset":140276
		},
		{
			"buffer":0,
			"byteLength":32,
			"byteOffset":140300
		},
		{
			"buffer":0,
			"byteLength":24,
			"byteOffset":140332
		},
		{
			"buffer":0,
			"byteLength":24,
			"byteOffset":140356
		},
		{
			"buffer":0,
			"byteLength":32,
			"byteOffset":140380
		},
		{
			"buffer":0,
			"byteLength":24,
			"byteOffset":140412
		},
		{
			"buffer":0,
			"byteLength":24,
			"byteOffset":140436
		},
		{
			"buffer":0,
			"byteLength":24,
			"byteOffset":140460
		},
		{
			"buffer":0,
			"byteLength":32,
			"byteOffset":140484
		},
		{
			"buffer":0,
			"byteLength":24,
			"byteOffset":140516
		},
		{
			"buffer":0,
			"byteLength":24,
			"byteOffset":140540
		},
		{
			"buffer":0,
			"byteLength":24,
			"byteOffset":140564
		},
		{
			"buffer":0,
			"byteLength":24,
			"byteOffset":140588
		},
		{
			"buffer":0,
			"byteLength":32,
			"byteOffset":140612
		},
		{
			"buffer":0,
			"byteLength":24,
			"byteOffset":140644
		},
		{
			"buffer":0,
			"byteLength":24,
			"byteOffset":140668
		},
		{
			"buffer":0,
			"byteLength":176,
			"byteOffset":140692
		},
		{
			"buffer":0,
			"byteLength":24,
			"byteOffset":140868
		},
		{
			"buffer":0,
			"byteLength":24,
			"byteOffset":140892
		},
		{
			"buffer":0,
			"byteLength":32,
			"byteOffset":140916
		},
		{
			"buffer":0,
			"byteLength":24,
			"byteOffset":140948
		},
		{
			"buffer":0,
			"byteLength":32,
			"byteOffset":140972
		},
		{
			"buffer":0,
			"byteLength":24,
			"byteOffset":141004
		},
		{
			"buffer":0,
			"byteLength":176,
			"byteOffset":141028
		},
		{
			"buffer":0,
			"byteLength":24,
			"byteOffset":141204
		},
		{
			"buffer":0,
			"byteLength":8,
			"byteOffset":141228
		},
		{
			"buffer":0,
			"byteLength":244,
			"byteOffset":141236
		},
		{
			"buffer":0,
			"byteLength":732,
			"byteOffset":141480
		},
		{
			"buffer":0,
			"byteLength":24,
			"byteOffset":142212
		},
		{
			"buffer":0,
			"byteLength":976,
			"byteOffset":142236
		},
		{
			"buffer":0,
			"byteLength":976,
			"byteOffset":143212
		},
		{
			"buffer":0,
			"byteLength":976,
			"byteOffset":144188
		},
		{
			"buffer":0,
			"byteLength":976,
			"byteOffset":145164
		},
		{
			"buffer":0,
			"byteLength":8,
			"byteOffset":146140
		},
		{
			"buffer":0,
			"byteLength":84,
			"byteOffset":146148
		},
		{
			"buffer":0,
			"byteLength":252,
			"byteOffset":146232
		},
		{
			"buffer":0,
			"byteLength":252,
			"byteOffset":146484
		},
		{
			"buffer":0,
			"byteLength":336,
			"byteOffset":146736
		},
		{
			"buffer":0,
			"byteLength":24,
			"byteOffset":147072
		},
		{
			"buffer":0,
			"byteLength":336,
			"byteOffset":147096
		},
		{
			"buffer":0,
			"byteLength":24,
			"byteOffset":147432
		},
		{
			"buffer":0,
			"byteLength":24,
			"byteOffset":147456
		},
		{
			"buffer":0,
			"byteLength":24,
			"byteOffset":147480
		},
		{
			"buffer":0,
			"byteLength":24,
			"byteOffset":147504
		},
		{
			"buffer":0,
			"byteLength":32,
			"byteOffset":147528
		},
		{
			"buffer":0,
			"byteLength":24,
			"byteOffset":147560
		},
		{
			"buffer":0,
			"byteLength":24,
			"byteOffset":147584
		},
		{
			"buffer":0,
			"byteLength":24,
			"byteOffset":147608
		},
		{
			"buffer":0,
			"byteLength":336,
			"byteOffset":147632
		},
		{
			"buffer":0,
			"byteLength":24,
			"byteOffset":147968
		},
		{
			"buffer":0,
			"byteLength":336,
			"byteOffset":147992
		},
		{
			"buffer":0,
			"byteLength":24,
			"byteOffset":148328
		},
		{
			"buffer":0,
			"byteLength":24,
			"byteOffset":148352
		},
		{
			"buffer":0,
			"byteLength":336,
			"byteOffset":148376
		},
		{
			"buffer":0,
			"byteLength":24,
			"byteOffset":148712
		},
		{
			"buffer":0,
			"byteLength":336,
			"byteOffset":148736
		}
	],
	"buffers":[
		{
			"byteLength":149072,
			"uri":"Slime.bin"
		}
	]
}
