# Blender 4.5.1 LTS
# www.blender.org
mtllib Sword.mtl
o Sword
v -0.020000 -0.709229 0.100000
v -0.020000 1.290771 0.100000
v -0.020000 -0.709229 -0.100000
v -0.020000 1.290771 -0.100000
v 0.020000 -0.709229 0.100000
v 0.020000 1.290771 0.100000
v 0.020000 -0.709229 -0.100000
v 0.020000 1.290771 -0.100000
v -0.020000 -0.709229 0.000000
v -0.020000 1.427876 0.000000
v 0.020000 -0.709229 0.000000
v 0.020000 1.427876 0.000000
v 0.000000 -1.308997 -0.100000
v 0.000000 -0.708997 -0.100000
v 0.019509 -1.308997 -0.098079
v 0.019509 -0.708997 -0.098079
v 0.038268 -1.308997 -0.092388
v 0.038268 -0.708997 -0.092388
v 0.055557 -1.308997 -0.083147
v 0.055557 -0.708997 -0.083147
v 0.070711 -1.308997 -0.070711
v 0.070711 -0.708997 -0.070711
v 0.083147 -1.308997 -0.055557
v 0.083147 -0.708997 -0.055557
v 0.092388 -1.308997 -0.038268
v 0.092388 -0.708997 -0.038268
v 0.098079 -1.308997 -0.019509
v 0.098079 -0.708997 -0.019509
v 0.100000 -1.308997 0.000000
v 0.100000 -0.708997 0.000000
v 0.098079 -1.308997 0.019509
v 0.098079 -0.708997 0.019509
v 0.092388 -1.308997 0.038268
v 0.092388 -0.708997 0.038268
v 0.083147 -1.308997 0.055557
v 0.083147 -0.708997 0.055557
v 0.070711 -1.308997 0.070711
v 0.070711 -0.708997 0.070711
v 0.055557 -1.308997 0.083147
v 0.055557 -0.708997 0.083147
v 0.038268 -1.308997 0.092388
v 0.038268 -0.708997 0.092388
v 0.019509 -1.308997 0.098079
v 0.019509 -0.708997 0.098079
v 0.000000 -1.308997 0.100000
v 0.000000 -0.708997 0.100000
v -0.019509 -1.308997 0.098079
v -0.019509 -0.708997 0.098079
v -0.038268 -1.308997 0.092388
v -0.038268 -0.708997 0.092388
v -0.055557 -1.308997 0.083147
v -0.055557 -0.708997 0.083147
v -0.070711 -1.308997 0.070711
v -0.070711 -0.708997 0.070711
v -0.083147 -1.308997 0.055557
v -0.083147 -0.708997 0.055557
v -0.092388 -1.308997 0.038268
v -0.092388 -0.708997 0.038268
v -0.098079 -1.308997 0.019509
v -0.098079 -0.708997 0.019509
v -0.100000 -1.308997 0.000000
v -0.100000 -0.708997 0.000000
v -0.098079 -1.308997 -0.019509
v -0.098079 -0.708997 -0.019509
v -0.092388 -1.308997 -0.038268
v -0.092388 -0.708997 -0.038268
v -0.083147 -1.308997 -0.055557
v -0.083147 -0.708997 -0.055557
v -0.070711 -1.308997 -0.070711
v -0.070711 -0.708997 -0.070711
v -0.055557 -1.308997 -0.083147
v -0.055557 -0.708997 -0.083147
v -0.038268 -1.308997 -0.092388
v -0.038268 -0.708997 -0.092388
v -0.019509 -1.308997 -0.098079
v -0.019509 -0.708997 -0.098079
v 0.000000 -0.723734 -0.200000
v 0.000000 -0.703734 -0.200000
v 0.039018 -0.723734 -0.196157
v 0.039018 -0.703734 -0.196157
v 0.076537 -0.723734 -0.184776
v 0.076537 -0.703734 -0.184776
v 0.111114 -0.723734 -0.166294
v 0.111114 -0.703734 -0.166294
v 0.141421 -0.723734 -0.141421
v 0.141421 -0.703734 -0.141421
v 0.166294 -0.723734 -0.111114
v 0.166294 -0.703734 -0.111114
v 0.184776 -0.723734 -0.076537
v 0.184776 -0.703734 -0.076537
v 0.196157 -0.723734 -0.039018
v 0.196157 -0.703734 -0.039018
v 0.200000 -0.723734 0.000000
v 0.200000 -0.703734 0.000000
v 0.196157 -0.723734 0.039018
v 0.196157 -0.703734 0.039018
v 0.184776 -0.723734 0.076537
v 0.184776 -0.703734 0.076537
v 0.166294 -0.723734 0.111114
v 0.166294 -0.703734 0.111114
v 0.141421 -0.723734 0.141421
v 0.141421 -0.703734 0.141421
v 0.111114 -0.723734 0.166294
v 0.111114 -0.703734 0.166294
v 0.076537 -0.723734 0.184776
v 0.076537 -0.703734 0.184776
v 0.039018 -0.723734 0.196157
v 0.039018 -0.703734 0.196157
v 0.000000 -0.723734 0.200000
v 0.000000 -0.703734 0.200000
v -0.039018 -0.723734 0.196157
v -0.039018 -0.703734 0.196157
v -0.076537 -0.723734 0.184776
v -0.076537 -0.703734 0.184776
v -0.111114 -0.723734 0.166294
v -0.111114 -0.703734 0.166294
v -0.141421 -0.723734 0.141421
v -0.141421 -0.703734 0.141421
v -0.166294 -0.723734 0.111114
v -0.166294 -0.703734 0.111114
v -0.184776 -0.723734 0.076537
v -0.184776 -0.703734 0.076537
v -0.196157 -0.723734 0.039018
v -0.196157 -0.703734 0.039018
v -0.200000 -0.723734 0.000000
v -0.200000 -0.703734 0.000000
v -0.196157 -0.723734 -0.039018
v -0.196157 -0.703734 -0.039018
v -0.184776 -0.723734 -0.076537
v -0.184776 -0.703734 -0.076537
v -0.166294 -0.723734 -0.111114
v -0.166294 -0.703734 -0.111114
v -0.141421 -0.723734 -0.141421
v -0.141421 -0.703734 -0.141421
v -0.111114 -0.723734 -0.166294
v -0.111114 -0.703734 -0.166294
v -0.076537 -0.723734 -0.184776
v -0.076537 -0.703734 -0.184776
v -0.039018 -0.723734 -0.196157
v -0.039018 -0.703734 -0.196157
vn -1.0000 -0.0000 -0.0000
vn -0.0000 -0.0000 -1.0000
vn 1.0000 -0.0000 -0.0000
vn -0.0000 -0.0000 1.0000
vn -0.0000 -1.0000 -0.0000
vn -0.0000 0.5893 0.8079
vn -0.0000 0.5893 -0.8079
vn 0.0980 -0.0000 -0.9952
vn 0.2903 -0.0000 -0.9569
vn 0.4714 -0.0000 -0.8819
vn 0.6344 -0.0000 -0.7730
vn 0.7730 -0.0000 -0.6344
vn 0.8819 -0.0000 -0.4714
vn 0.9569 -0.0000 -0.2903
vn 0.9952 -0.0000 -0.0980
vn 0.9952 -0.0000 0.0980
vn 0.9569 -0.0000 0.2903
vn 0.8819 -0.0000 0.4714
vn 0.7730 -0.0000 0.6344
vn 0.6344 -0.0000 0.7730
vn 0.4714 -0.0000 0.8819
vn 0.2903 -0.0000 0.9569
vn 0.0980 -0.0000 0.9952
vn -0.0980 -0.0000 0.9952
vn -0.2903 -0.0000 0.9569
vn -0.4714 -0.0000 0.8819
vn -0.6344 -0.0000 0.7730
vn -0.7730 -0.0000 0.6344
vn -0.8819 -0.0000 0.4714
vn -0.9569 -0.0000 0.2903
vn -0.9952 -0.0000 0.0980
vn -0.9952 -0.0000 -0.0980
vn -0.9569 -0.0000 -0.2903
vn -0.8819 -0.0000 -0.4714
vn -0.7730 -0.0000 -0.6344
vn -0.6344 -0.0000 -0.7730
vn -0.4714 -0.0000 -0.8819
vn -0.0000 1.0000 -0.0000
vn -0.2903 -0.0000 -0.9569
vn -0.0980 -0.0000 -0.9952
vt 0.046792 1.000000
vt 0.046792 0.000000
vt 0.093585 0.064154
vt 0.093585 1.000000
vt 0.451250 0.835503
vt 0.451250 0.079406
vt 0.469967 0.079406
vt 0.469967 0.835503
vt 0.140377 1.000000
vt 0.140377 0.000000
vt 0.187169 0.064154
vt 0.187169 1.000000
vt 0.488683 0.079406
vt 0.488683 0.835503
vt 0.507400 0.475388
vt 0.488683 0.475388
vt 0.488683 0.428596
vt 0.507400 0.428596
vt 0.469967 0.000000
vt 0.488683 0.000000
vt 0.451250 0.000000
vt 0.507400 0.522180
vt 0.488683 0.522180
vt 0.000000 1.000000
vt 0.000000 0.064154
vt 0.254910 0.467502
vt 0.236088 0.241455
vt 0.245141 0.240169
vt 0.263963 0.466216
vt 0.253759 0.237877
vt 0.272581 0.463924
vt 0.261609 0.234666
vt 0.280431 0.460713
vt 0.187169 0.935339
vt 0.187169 0.654586
vt 0.192988 0.654586
vt 0.192988 0.935339
vt 0.200079 0.654586
vt 0.200079 0.935339
vt 0.208169 0.654586
vt 0.208169 0.935339
vt 0.216947 0.654586
vt 0.216947 0.935339
vt 0.226075 0.654586
vt 0.226075 0.935339
vt 0.235204 0.654586
vt 0.235204 0.935339
vt 0.243982 0.654586
vt 0.243982 0.935339
vt 0.252072 0.654586
vt 0.252072 0.935339
vt 0.259163 0.654586
vt 0.259163 0.935339
vt 0.264982 0.654586
vt 0.264982 0.935339
vt 0.488683 0.226829
vt 0.488683 0.000000
vt 0.496773 0.002548
vt 0.496773 0.229377
vt 0.505551 0.004117
vt 0.505551 0.230946
vt 0.514680 0.004647
vt 0.514680 0.231476
vt 0.523809 0.004117
vt 0.523809 0.230946
vt 0.532587 0.002548
vt 0.532587 0.229377
vt 0.540676 0.000000
vt 0.540676 0.226829
vt 0.373437 0.280754
vt 0.373437 0.000000
vt 0.379256 0.000000
vt 0.379256 0.280754
vt 0.386347 0.000000
vt 0.386347 0.280754
vt 0.394437 0.000000
vt 0.394437 0.280754
vt 0.403215 0.000000
vt 0.403215 0.280754
vt 0.412343 0.000000
vt 0.412343 0.280754
vt 0.421472 0.000000
vt 0.421472 0.280754
vt 0.430250 0.000000
vt 0.430250 0.280754
vt 0.438340 0.000000
vt 0.438340 0.280754
vt 0.445430 0.000000
vt 0.445430 0.280754
vt 0.451250 0.000000
vt 0.451250 0.280754
vt 0.228617 0.465028
vt 0.209796 0.238981
vt 0.218069 0.240849
vt 0.236891 0.466896
vt 0.226947 0.241684
vt 0.202445 0.236152
vt 0.196299 0.232471
vt 0.191594 0.228079
vt 0.188511 0.223145
vt 0.187169 0.217859
vt 0.187619 0.212423
vt 0.189843 0.207047
vt 0.193757 0.201938
vt 0.199209 0.197291
vt 0.205991 0.193285
vt 0.213841 0.190075
vt 0.222459 0.187783
vt 0.231512 0.186497
vt 0.240653 0.186268
vt 0.249531 0.187103
vt 0.257804 0.188971
vt 0.265155 0.191800
vt 0.271301 0.195481
vt 0.276006 0.199873
vt 0.279089 0.204807
vt 0.280431 0.210093
vt 0.279981 0.215529
vt 0.277757 0.220904
vt 0.273843 0.226014
vt 0.268391 0.230661
vt 0.245769 0.467731
vt 0.490473 0.291626
vt 0.488683 0.282630
vt 0.488683 0.273457
vt 0.490473 0.264460
vt 0.493983 0.255985
vt 0.499079 0.248358
vt 0.505566 0.241872
vt 0.513193 0.236776
vt 0.521667 0.233266
vt 0.530664 0.231476
vt 0.539837 0.231476
vt 0.548833 0.233266
vt 0.557308 0.236776
vt 0.564935 0.241872
vt 0.571421 0.248358
vt 0.576517 0.255985
vt 0.580028 0.264460
vt 0.581817 0.273457
vt 0.581817 0.282630
vt 0.580028 0.291626
vt 0.576517 0.300101
vt 0.571421 0.307728
vt 0.564935 0.314214
vt 0.557308 0.319310
vt 0.548833 0.322821
vt 0.539837 0.324610
vt 0.530664 0.324610
vt 0.521667 0.322821
vt 0.513193 0.319310
vt 0.505566 0.314214
vt 0.499079 0.307728
vt 0.493983 0.300101
vt 0.187169 0.564792
vt 0.194717 0.564354
vt 0.196833 0.582519
vt 0.189285 0.582957
vt 0.200983 0.599863
vt 0.193435 0.600302
vt 0.207008 0.615721
vt 0.199460 0.616159
vt 0.498042 0.677806
vt 0.488683 0.677806
vt 0.488683 0.666167
vt 0.498042 0.666167
vt 0.488683 0.651986
vt 0.498042 0.651986
vt 0.488683 0.635806
vt 0.498042 0.635806
vt 0.488683 0.618251
vt 0.498042 0.618251
vt 0.488683 0.599993
vt 0.498042 0.599993
vt 0.488683 0.581736
vt 0.498042 0.581736
vt 0.488683 0.564180
vt 0.498042 0.564180
vt 0.488683 0.548000
vt 0.498042 0.548000
vt 0.488683 0.533819
vt 0.498042 0.533819
vt 0.488683 0.522180
vt 0.498042 0.522180
vt 0.496244 0.428596
vt 0.488683 0.428596
vt 0.493780 0.412416
vt 0.501341 0.412416
vt 0.496918 0.394860
vt 0.504479 0.394860
vt 0.497977 0.376603
vt 0.505538 0.376603
vt 0.496918 0.358345
vt 0.504479 0.358346
vt 0.493780 0.340790
vt 0.501341 0.340790
vt 0.488683 0.324610
vt 0.496244 0.324610
vt 0.498042 0.833431
vt 0.488683 0.833431
vt 0.488683 0.821793
vt 0.498042 0.821793
vt 0.488683 0.807611
vt 0.498042 0.807611
vt 0.488683 0.791432
vt 0.498042 0.791432
vt 0.488683 0.773876
vt 0.498042 0.773876
vt 0.488683 0.755618
vt 0.498042 0.755618
vt 0.488683 0.737361
vt 0.498042 0.737361
vt 0.488683 0.719805
vt 0.498042 0.719805
vt 0.488683 0.703626
vt 0.498042 0.703626
vt 0.488683 0.689444
vt 0.498042 0.689444
vt 0.488683 0.677806
vt 0.498042 0.677806
vt 0.193435 0.512348
vt 0.200983 0.511910
vt 0.196833 0.528357
vt 0.189285 0.528795
vt 0.194717 0.546065
vt 0.207008 0.497355
vt 0.214677 0.485252
vt 0.223694 0.476065
vt 0.233713 0.470150
vt 0.244350 0.467731
vt 0.255195 0.468903
vt 0.265831 0.473620
vt 0.275850 0.481701
vt 0.284868 0.492836
vt 0.292536 0.506596
vt 0.298561 0.522453
vt 0.302711 0.539798
vt 0.304827 0.557963
vt 0.304827 0.576251
vt 0.302711 0.593959
vt 0.298561 0.610407
vt 0.292536 0.624962
vt 0.284867 0.637065
vt 0.275850 0.646251
vt 0.265831 0.652167
vt 0.255195 0.654586
vt 0.244350 0.653414
vt 0.233713 0.648697
vt 0.223694 0.640616
vt 0.214677 0.629481
vt 0.187169 0.546504
vt 0.190748 0.120300
vt 0.187169 0.102307
vt 0.187169 0.083961
vt 0.190748 0.065968
vt 0.197769 0.049018
vt 0.207961 0.033765
vt 0.220934 0.020792
vt 0.236188 0.010600
vt 0.253137 0.003579
vt 0.271130 0.000000
vt 0.289476 0.000000
vt 0.307469 0.003579
vt 0.324418 0.010600
vt 0.339672 0.020792
vt 0.352645 0.033765
vt 0.362837 0.049018
vt 0.369858 0.065968
vt 0.373437 0.083961
vt 0.373437 0.102307
vt 0.369858 0.120300
vt 0.362837 0.137249
vt 0.352645 0.152503
vt 0.339672 0.165476
vt 0.324418 0.175668
vt 0.307469 0.182689
vt 0.289476 0.186268
vt 0.271130 0.186268
vt 0.253137 0.182689
vt 0.236188 0.175668
vt 0.220934 0.165476
vt 0.207961 0.152503
vt 0.197769 0.137249
s 0
usemtl Material.001
f 9/1/1 10/2/1 4/3/1 3/4/1
f 3/5/2 4/6/2 8/7/2 7/8/2
f 11/9/3 12/10/3 6/11/3 5/12/3
f 5/8/4 6/7/4 2/13/4 1/14/4
f 9/15/5 11/16/5 5/17/5 1/18/5
f 12/19/6 10/20/6 2/13/6 6/7/6
f 8/7/7 4/6/7 10/21/7 12/19/7
f 3/22/5 7/23/5 11/16/5 9/15/5
f 7/4/3 8/3/3 12/10/3 11/9/3
f 1/24/1 2/25/1 10/2/1 9/1/1
f 13/26/8 14/27/8 16/28/8 15/29/8
f 15/29/9 16/28/9 18/30/9 17/31/9
f 17/31/10 18/30/10 20/32/10 19/33/10
f 19/34/11 20/35/11 22/36/11 21/37/11
f 21/37/12 22/36/12 24/38/12 23/39/12
f 23/39/13 24/38/13 26/40/13 25/41/13
f 25/41/14 26/40/14 28/42/14 27/43/14
f 27/43/15 28/42/15 30/44/15 29/45/15
f 29/45/16 30/44/16 32/46/16 31/47/16
f 31/47/17 32/46/17 34/48/17 33/49/17
f 33/49/18 34/48/18 36/50/18 35/51/18
f 35/51/19 36/50/19 38/52/19 37/53/19
f 37/53/20 38/52/20 40/54/20 39/55/20
f 39/56/21 40/57/21 42/58/21 41/59/21
f 41/59/22 42/58/22 44/60/22 43/61/22
f 43/61/23 44/60/23 46/62/23 45/63/23
f 45/63/24 46/62/24 48/64/24 47/65/24
f 47/65/25 48/64/25 50/66/25 49/67/25
f 49/67/26 50/66/26 52/68/26 51/69/26
f 51/70/27 52/71/27 54/72/27 53/73/27
f 53/73/28 54/72/28 56/74/28 55/75/28
f 55/75/29 56/74/29 58/76/29 57/77/29
f 57/77/30 58/76/30 60/78/30 59/79/30
f 59/79/31 60/78/31 62/80/31 61/81/31
f 61/81/32 62/80/32 64/82/32 63/83/32
f 63/83/33 64/82/33 66/84/33 65/85/33
f 65/85/34 66/84/34 68/86/34 67/87/34
f 67/87/35 68/86/35 70/88/35 69/89/35
f 69/89/36 70/88/36 72/90/36 71/91/36
f 71/92/37 72/93/37 74/94/37 73/95/37
f 16/28/38 14/27/38 76/96/38 74/94/38 72/93/38 70/97/38 68/98/38 66/99/38 64/100/38 62/101/38 60/102/38 58/103/38 56/104/38 54/105/38 52/106/38 50/107/38 48/108/38 46/109/38 44/110/38 42/111/38 40/112/38 38/113/38 36/114/38 34/115/38 32/116/38 30/117/38 28/118/38 26/119/38 24/120/38 22/121/38 20/32/38 18/30/38
f 73/95/39 74/94/39 76/96/39 75/122/39
f 75/122/40 76/96/40 14/27/40 13/26/40
f 13/123/5 15/124/5 17/125/5 19/126/5 21/127/5 23/128/5 25/129/5 27/130/5 29/131/5 31/132/5 33/133/5 35/134/5 37/135/5 39/136/5 41/137/5 43/138/5 45/139/5 47/140/5 49/141/5 51/142/5 53/143/5 55/144/5 57/145/5 59/146/5 61/147/5 63/148/5 65/149/5 67/150/5 69/151/5 71/152/5 73/153/5 75/154/5
f 77/155/8 78/156/8 80/157/8 79/158/8
f 79/158/9 80/157/9 82/159/9 81/160/9
f 81/160/10 82/159/10 84/161/10 83/162/10
f 83/163/11 84/164/11 86/165/11 85/166/11
f 85/166/12 86/165/12 88/167/12 87/168/12
f 87/168/13 88/167/13 90/169/13 89/170/13
f 89/170/14 90/169/14 92/171/14 91/172/14
f 91/172/15 92/171/15 94/173/15 93/174/15
f 93/174/16 94/173/16 96/175/16 95/176/16
f 95/176/17 96/175/17 98/177/17 97/178/17
f 97/178/18 98/177/18 100/179/18 99/180/18
f 99/180/19 100/179/19 102/181/19 101/182/19
f 101/182/20 102/181/20 104/183/20 103/184/20
f 103/185/21 104/186/21 106/187/21 105/188/21
f 105/188/22 106/187/22 108/189/22 107/190/22
f 107/190/23 108/189/23 110/191/23 109/192/23
f 109/192/24 110/191/24 112/193/24 111/194/24
f 111/194/25 112/193/25 114/195/25 113/196/25
f 113/196/26 114/195/26 116/197/26 115/198/26
f 115/199/27 116/200/27 118/201/27 117/202/27
f 117/202/28 118/201/28 120/203/28 119/204/28
f 119/204/29 120/203/29 122/205/29 121/206/29
f 121/206/30 122/205/30 124/207/30 123/208/30
f 123/208/31 124/207/31 126/209/31 125/210/31
f 125/210/32 126/209/32 128/211/32 127/212/32
f 127/212/33 128/211/33 130/213/33 129/214/33
f 129/214/34 130/213/34 132/215/34 131/216/34
f 131/216/35 132/215/35 134/217/35 133/218/35
f 133/218/36 134/217/36 136/219/36 135/220/36
f 135/221/37 136/222/37 138/223/37 137/224/37
f 80/157/38 78/156/38 140/225/38 138/223/38 136/222/38 134/226/38 132/227/38 130/228/38 128/229/38 126/230/38 124/231/38 122/232/38 120/233/38 118/234/38 116/235/38 114/236/38 112/237/38 110/238/38 108/239/38 106/240/38 104/241/38 102/242/38 100/243/38 98/244/38 96/245/38 94/246/38 92/247/38 90/248/38 88/249/38 86/250/38 84/161/38 82/159/38
f 137/224/39 138/223/39 140/225/39 139/251/39
f 139/251/40 140/225/40 78/156/40 77/155/40
f 77/252/5 79/253/5 81/254/5 83/255/5 85/256/5 87/257/5 89/258/5 91/259/5 93/260/5 95/261/5 97/262/5 99/263/5 101/264/5 103/265/5 105/266/5 107/267/5 109/268/5 111/269/5 113/270/5 115/271/5 117/272/5 119/273/5 121/274/5 123/275/5 125/276/5 127/277/5 129/278/5 131/279/5 133/280/5 135/281/5 137/282/5 139/283/5
